<svg width="1360" height="737" viewBox="0 0 1360 737" fill="none" xmlns="http://www.w3.org/2000/svg">
  <g clip-path="url(#clip0_3833_82758)">
    <path d="M1129.58 3.60059H1128.04V31.0885H1129.58V3.60059Z" fill="#27F795" />
    <path d="M1165.72 3.65443L1161.2 30.7686L1162.71 31.0211L1167.23 3.90699L1165.72 3.65443Z" fill="#27F795" />
    <path d="M1195.66 31.3707L1193.21 29.6485L1203.01 2.93262L1205.46 4.64736L1195.66 31.3707Z" fill="#27F795" />
    <path d="M1228.53 31.7117L1225.15 28.5197L1240.23 2.19727L1243.61 5.3818L1228.53 31.7117Z" fill="#27F795" />
    <path d="M1261.4 32.0463L1257.1 27.3919L1277.46 1.46289L1281.76 6.1172L1261.4 32.0463Z" fill="#27F795" />
    <path d="M1294.28 32.3877L1289.04 26.2636L1314.68 0.735352L1319.92 6.85203L1294.28 32.3877Z" fill="#27F795" />
    <path d="M1351.88 -0.018028L1320.97 25.1182L1327.14 32.7097L1358.06 7.57351L1351.88 -0.018028Z" fill="#27F795" />
    <path d="M1129.58 38.8525H1128.04V66.3405H1129.58V38.8525Z" fill="#27F795" />
    <path d="M1165.72 38.9025L1161.2 66.0166L1162.72 66.2692L1167.23 39.155L1165.72 38.9025Z" fill="#27F795" />
    <path d="M1196.8 66.8681L1194.22 65.3463L1201.87 37.9326L1204.45 39.4544L1196.8 66.8681Z" fill="#27F795" />
    <path d="M1229.82 67.4097L1226.18 64.5221L1238.94 36.9971L1242.58 39.8847L1229.82 67.4097Z" fill="#27F795" />
    <path d="M1262.89 67.9959L1258.16 63.7647L1275.96 36.0244L1280.69 40.2482L1262.89 67.9959Z" fill="#27F795" />
    <path d="M1296.63 68.9318L1290.57 63.6169L1312.32 34.6963L1318.37 40.0113L1296.63 68.9318Z" fill="#27F795" />
    <path d="M1350.64 35.4979L1323.86 65.0078L1331.1 71.5823L1357.88 42.0724L1350.64 35.4979Z" fill="#27F795" />
    <path d="M1129.58 74.1055H1128.04V101.593H1129.58V74.1055Z" fill="#27F795" />
    <path d="M1196.86 101.935L1194.28 100.428L1201.81 72.9775L1204.39 74.4844L1196.86 101.935Z" fill="#27F795" />
    <path d="M1230.51 102.729L1226.82 99.9007L1239.15 72.1826L1242.84 75.0108L1230.51 102.729Z" fill="#27F795" />
    <path d="M1262.94 103.264L1258.2 99.0546L1275.91 71.2549L1280.66 75.4638L1262.94 103.264Z" fill="#27F795" />
    <path d="M1297.9 104.711L1291.47 99.849L1311.05 69.4141L1317.47 74.2762L1297.9 104.711Z" fill="#27F795" />
    <path d="M1345.72 67.3272L1325.04 101.39L1333.41 106.467L1354.08 72.4042L1345.72 67.3272Z" fill="#27F795" />
    <path d="M1129.58 109.351H1128.04V136.839H1129.58V109.351Z" fill="#27F795" />
    <path d="M1129.58 144.604H1128.04V172.091H1129.58V144.604Z" fill="#27F795" />
    <path d="M1129.58 179.855H1128.04V207.343H1129.58V179.855Z" fill="#27F795" />
    <path d="M1129.58 215.108H1128.04V242.596H1129.58V215.108Z" fill="#27F795" />
    <path d="M1094.33 3.60059H1092.79V31.0885H1094.33V3.60059Z" fill="#27F795" />
    <path d="M1094.33 38.8525H1092.79V66.3405H1094.33V38.8525Z" fill="#27F795" />
    <path d="M1094.33 74.1055H1092.79V101.593H1094.33V74.1055Z" fill="#27F795" />
    <path d="M1094.33 109.351H1092.79V136.839H1094.33V109.351Z" fill="#27F795" />
    <path d="M1094.33 144.604H1092.79V172.091H1094.33V144.604Z" fill="#27F795" />
    <path d="M1094.33 179.855H1092.79V207.343H1094.33V179.855Z" fill="#27F795" />
    <path d="M1094.33 215.108H1092.79V242.596H1094.33V215.108Z" fill="#27F795" />
    <path d="M1059.08 3.60059H1057.54V31.0885H1059.08V3.60059Z" fill="#27F795" />
    <path d="M1059.08 38.8525H1057.54V66.3405H1059.08V38.8525Z" fill="#27F795" />
    <path d="M1059.08 74.1055H1057.54V101.593H1059.08V74.1055Z" fill="#27F795" />
    <path d="M1059.08 109.351H1057.54V136.839H1059.08V109.351Z" fill="#27F795" />
    <path d="M1059.08 144.604H1057.54V172.091H1059.08V144.604Z" fill="#27F795" />
    <path d="M1059.08 179.855H1057.54V207.343H1059.08V179.855Z" fill="#27F795" />
    <path d="M1059.08 215.108H1057.54V242.596H1059.08V215.108Z" fill="#27F795" />
    <path d="M1023.82 3.60059H1022.29V31.0885H1023.82V3.60059Z" fill="#27F795" />
    <path d="M1023.82 38.8525H1022.29V66.3405H1023.82V38.8525Z" fill="#27F795" />
    <path d="M1023.82 74.1055H1022.29V101.593H1023.82V74.1055Z" fill="#27F795" />
    <path d="M1023.82 109.351H1022.29V136.839H1023.82V109.351Z" fill="#27F795" />
    <path d="M1023.82 144.604H1022.29V172.091H1023.82V144.604Z" fill="#27F795" />
    <path d="M1023.82 179.855H1022.29V207.343H1023.82V179.855Z" fill="#27F795" />
    <path d="M1023.82 215.108H1022.29V242.596H1023.82V215.108Z" fill="#27F795" />
    <path d="M988.57 3.60059H987.034V31.0885H988.57V3.60059Z" fill="#27F795" />
    <path d="M988.57 38.8525H987.034V66.3405H988.57V38.8525Z" fill="#27F795" />
    <path d="M988.57 74.1055H987.034V101.593H988.57V74.1055Z" fill="#27F795" />
    <path d="M988.57 109.351H987.034V136.839H988.57V109.351Z" fill="#27F795" />
    <path d="M988.57 144.604H987.034V172.091H988.57V144.604Z" fill="#27F795" />
    <path d="M988.57 179.855H987.034V207.343H988.57V179.855Z" fill="#27F795" />
    <path d="M988.57 215.108H987.034V242.596H988.57V215.108Z" fill="#27F795" />
    <path d="M953.325 3.60059H951.789V31.0885H953.325V3.60059Z" fill="#27F795" />
    <path d="M953.325 38.8525H951.789V66.3405H953.325V38.8525Z" fill="#27F795" />
    <path d="M953.325 74.1055H951.789V101.593H953.325V74.1055Z" fill="#27F795" />
    <path d="M953.325 109.351H951.789V136.839H953.325V109.351Z" fill="#27F795" />
    <path d="M953.325 144.604H951.789V172.091H953.325V144.604Z" fill="#27F795" />
    <path d="M953.325 179.855H951.789V207.343H953.325V179.855Z" fill="#27F795" />
    <path d="M953.325 215.108H951.789V242.596H953.325V215.108Z" fill="#27F795" />
    <path d="M918.073 3.60059H916.536V31.0885H918.073V3.60059Z" fill="#27F795" />
    <path d="M918.073 38.8525H916.536V66.3405H918.073V38.8525Z" fill="#27F795" />
    <path d="M918.073 74.1055H916.536V101.593H918.073V74.1055Z" fill="#27F795" />
    <path d="M918.073 109.351H916.536V136.839H918.073V109.351Z" fill="#27F795" />
    <path d="M918.073 144.604H916.536V172.091H918.073V144.604Z" fill="#27F795" />
    <path d="M918.073 179.855H916.536V207.343H918.073V179.855Z" fill="#27F795" />
    <path d="M918.073 215.108H916.536V242.596H918.073V215.108Z" fill="#27F795" />
    <path d="M882.82 3.60059H881.284V31.0885H882.82V3.60059Z" fill="#27F795" />
    <path d="M882.82 38.8525H881.284V66.3405H882.82V38.8525Z" fill="#27F795" />
    <path d="M882.82 74.1055H881.284V101.593H882.82V74.1055Z" fill="#27F795" />
    <path d="M882.82 109.351H881.284V136.839H882.82V109.351Z" fill="#27F795" />
    <path d="M882.82 144.604H881.284V172.091H882.82V144.604Z" fill="#27F795" />
    <path d="M882.82 179.855H881.284V207.343H882.82V179.855Z" fill="#27F795" />
    <path d="M882.82 215.108H881.284V242.596H882.82V215.108Z" fill="#27F795" />
    <path d="M847.568 3.60059H846.031V31.0885H847.568V3.60059Z" fill="#27F795" />
    <path d="M847.568 38.8525H846.031V66.3405H847.568V38.8525Z" fill="#27F795" />
    <path d="M847.568 74.1055H846.031V101.593H847.568V74.1055Z" fill="#27F795" />
    <path d="M847.568 109.351H846.031V136.839H847.568V109.351Z" fill="#27F795" />
    <path d="M847.568 144.604H846.031V172.091H847.568V144.604Z" fill="#27F795" />
    <path d="M847.568 179.855H846.031V207.343H847.568V179.855Z" fill="#27F795" />
    <path d="M847.568 215.108H846.031V242.596H847.568V215.108Z" fill="#27F795" />
    <path d="M812.315 3.60059H810.778V31.0885H812.315V3.60059Z" fill="#27F795" />
    <path d="M812.315 38.8525H810.778V66.3405H812.315V38.8525Z" fill="#27F795" />
    <path d="M812.315 74.1055H810.778V101.593H812.315V74.1055Z" fill="#27F795" />
    <path d="M812.315 109.351H810.778V136.839H812.315V109.351Z" fill="#27F795" />
    <path d="M812.315 144.604H810.778V172.091H812.315V144.604Z" fill="#27F795" />
    <path d="M812.315 179.855H810.778V207.343H812.315V179.855Z" fill="#27F795" />
    <path d="M812.315 215.108H810.778V242.596H812.315V215.108Z" fill="#27F795" />
    <path d="M777.063 3.60059H775.526V31.0885H777.063V3.60059Z" fill="#27F795" />
    <path d="M777.063 38.8525H775.526V66.3405H777.063V38.8525Z" fill="#27F795" />
    <path d="M777.063 74.1055H775.526V101.593H777.063V74.1055Z" fill="#27F795" />
    <path d="M777.063 109.351H775.526V136.839H777.063V109.351Z" fill="#27F795" />
    <path d="M777.063 144.604H775.526V172.091H777.063V144.604Z" fill="#27F795" />
    <path d="M777.063 179.855H775.526V207.343H777.063V179.855Z" fill="#27F795" />
    <path d="M777.063 215.108H775.526V242.596H777.063V215.108Z" fill="#27F795" />
    <path d="M741.817 3.60059H740.281V31.0885H741.817V3.60059Z" fill="#27F795" />
    <path d="M741.817 38.8525H740.281V66.3405H741.817V38.8525Z" fill="#27F795" />
    <path d="M741.817 74.1055H740.281V101.593H741.817V74.1055Z" fill="#27F795" />
    <path d="M741.817 109.351H740.281V136.839H741.817V109.351Z" fill="#27F795" />
    <path d="M741.817 144.604H740.281V172.091H741.817V144.604Z" fill="#27F795" />
    <path d="M741.817 179.855H740.281V207.343H741.817V179.855Z" fill="#27F795" />
    <path d="M741.817 215.108H740.281V242.596H741.817V215.108Z" fill="#27F795" />
    <path d="M706.565 3.60059H705.028V31.0885H706.565V3.60059Z" fill="#27F795" />
    <path d="M706.565 38.8525H705.028V66.3405H706.565V38.8525Z" fill="#27F795" />
    <path d="M706.565 74.1055H705.028V101.593H706.565V74.1055Z" fill="#27F795" />
    <path d="M706.565 109.351H705.028V136.839H706.565V109.351Z" fill="#27F795" />
    <path d="M706.565 144.604H705.028V172.091H706.565V144.604Z" fill="#27F795" />
    <path d="M706.565 179.855H705.028V207.343H706.565V179.855Z" fill="#27F795" />
    <path d="M706.565 215.108H705.028V242.596H706.565V215.108Z" fill="#27F795" />
    <path d="M671.312 3.60059H669.776V31.0885H671.312V3.60059Z" fill="#27F795" />
    <path d="M671.312 38.8525H669.776V66.3405H671.312V38.8525Z" fill="#27F795" />
    <path d="M671.312 74.1055H669.776V101.593H671.312V74.1055Z" fill="#27F795" />
    <path d="M671.312 109.351H669.776V136.839H671.312V109.351Z" fill="#27F795" />
    <path d="M671.312 144.604H669.776V172.091H671.312V144.604Z" fill="#27F795" />
    <path d="M671.312 179.855H669.776V207.343H671.312V179.855Z" fill="#27F795" />
    <path d="M671.312 215.108H669.776V242.596H671.312V215.108Z" fill="#27F795" />
    <path d="M636.06 3.60059H634.523V31.0885H636.06V3.60059Z" fill="#27F795" />
    <path d="M636.06 38.8525H634.523V66.3405H636.06V38.8525Z" fill="#27F795" />
    <path d="M636.06 74.1055H634.523V101.593H636.06V74.1055Z" fill="#27F795" />
    <path d="M636.06 109.351H634.523V136.839H636.06V109.351Z" fill="#27F795" />
    <path d="M636.06 144.604H634.523V172.091H636.06V144.604Z" fill="#27F795" />
    <path d="M636.06 179.855H634.523V207.343H636.06V179.855Z" fill="#27F795" />
    <path d="M636.06 215.108H634.523V242.596H636.06V215.108Z" fill="#27F795" />
    <path d="M600.807 3.60059H599.271V31.0885H600.807V3.60059Z" fill="#27F795" />
    <path d="M600.807 38.8525H599.271V66.3405H600.807V38.8525Z" fill="#27F795" />
    <path d="M600.807 74.1055H599.271V101.593H600.807V74.1055Z" fill="#27F795" />
    <path d="M600.807 109.351H599.271V136.839H600.807V109.351Z" fill="#27F795" />
    <path d="M600.807 144.604H599.271V172.091H600.807V144.604Z" fill="#27F795" />
    <path d="M600.807 179.855H599.271V207.343H600.807V179.855Z" fill="#27F795" />
    <path d="M600.807 215.108H599.271V242.596H600.807V215.108Z" fill="#27F795" />
    <path d="M565.555 3.60059H564.018V31.0885H565.555V3.60059Z" fill="#27F795" />
    <path d="M565.555 38.8525H564.018V66.3405H565.555V38.8525Z" fill="#27F795" />
    <path d="M565.555 74.1055H564.018V101.593H565.555V74.1055Z" fill="#27F795" />
    <path d="M565.555 109.351H564.018V136.839H565.555V109.351Z" fill="#27F795" />
    <path d="M565.555 144.604H564.018V172.091H565.555V144.604Z" fill="#27F795" />
    <path d="M565.555 179.855H564.018V207.343H565.555V179.855Z" fill="#27F795" />
    <path d="M565.555 215.108H564.018V242.596H565.555V215.108Z" fill="#27F795" />
    <path d="M530.31 3.60059H528.773V31.0885H530.31V3.60059Z" fill="#27F795" />
    <path d="M530.31 38.8525H528.773V66.3405H530.31V38.8525Z" fill="#27F795" />
    <path d="M530.31 74.1055H528.773V101.593H530.31V74.1055Z" fill="#27F795" />
    <path d="M530.31 109.351H528.773V136.839H530.31V109.351Z" fill="#27F795" />
    <path d="M530.31 144.604H528.773V172.091H530.31V144.604Z" fill="#27F795" />
    <path d="M530.31 179.855H528.773V207.343H530.31V179.855Z" fill="#27F795" />
    <path d="M530.31 215.108H528.773V242.596H530.31V215.108Z" fill="#27F795" />
    <path d="M495.057 3.60059H493.521V31.0885H495.057V3.60059Z" fill="#27F795" />
    <path d="M495.057 38.8525H493.521V66.3405H495.057V38.8525Z" fill="#27F795" />
    <path d="M495.057 74.1055H493.521V101.593H495.057V74.1055Z" fill="#27F795" />
    <path d="M495.057 109.351H493.521V136.839H495.057V109.351Z" fill="#27F795" />
    <path d="M495.057 144.604H493.521V172.091H495.057V144.604Z" fill="#27F795" />
    <path d="M495.057 179.855H493.521V207.343H495.057V179.855Z" fill="#27F795" />
    <path d="M495.057 215.108H493.521V242.596H495.057V215.108Z" fill="#27F795" />
    <path d="M459.805 3.60059H458.268V31.0885H459.805V3.60059Z" fill="#27F795" />
    <path d="M459.805 38.8525H458.268V66.3405H459.805V38.8525Z" fill="#27F795" />
    <path d="M459.805 74.1055H458.268V101.593H459.805V74.1055Z" fill="#27F795" />
    <path d="M459.805 109.351H458.268V136.839H459.805V109.351Z" fill="#27F795" />
    <path d="M459.805 144.604H458.268V172.091H459.805V144.604Z" fill="#27F795" />
    <path d="M459.805 179.855H458.268V207.343H459.805V179.855Z" fill="#27F795" />
    <path d="M459.805 215.108H458.268V242.596H459.805V215.108Z" fill="#27F795" />
    <path d="M424.552 3.60059H423.016V31.0885H424.552V3.60059Z" fill="#27F795" />
    <path d="M424.552 38.8525H423.016V66.3405H424.552V38.8525Z" fill="#27F795" />
    <path d="M424.552 74.1055H423.016V101.593H424.552V74.1055Z" fill="#27F795" />
    <path d="M424.552 109.351H423.016V136.839H424.552V109.351Z" fill="#27F795" />
    <path d="M424.552 144.604H423.016V172.091H424.552V144.604Z" fill="#27F795" />
    <path d="M424.552 179.855H423.016V207.343H424.552V179.855Z" fill="#27F795" />
    <path d="M424.552 215.108H423.016V242.596H424.552V215.108Z" fill="#27F795" />
    <path d="M389.3 3.60059H387.763V31.0885H389.3V3.60059Z" fill="#27F795" />
    <path d="M389.3 38.8525H387.763V66.3405H389.3V38.8525Z" fill="#27F795" />
    <path d="M389.3 74.1055H387.763V101.593H389.3V74.1055Z" fill="#27F795" />
    <path d="M389.3 109.351H387.763V136.839H389.3V109.351Z" fill="#27F795" />
    <path d="M389.3 144.604H387.763V172.091H389.3V144.604Z" fill="#27F795" />
    <path d="M389.3 179.855H387.763V207.343H389.3V179.855Z" fill="#27F795" />
    <path d="M389.3 215.108H387.763V242.596H389.3V215.108Z" fill="#27F795" />
    <path d="M354.047 3.60059H352.51V31.0885H354.047V3.60059Z" fill="#27F795" />
    <path d="M354.047 38.8525H352.51V66.3405H354.047V38.8525Z" fill="#27F795" />
    <path d="M354.047 74.1055H352.51V101.593H354.047V74.1055Z" fill="#27F795" />
    <path d="M354.047 109.351H352.51V136.839H354.047V109.351Z" fill="#27F795" />
    <path d="M354.047 144.604H352.51V172.091H354.047V144.604Z" fill="#27F795" />
    <path d="M354.047 179.855H352.51V207.343H354.047V179.855Z" fill="#27F795" />
    <path d="M354.047 215.108H352.51V242.596H354.047V215.108Z" fill="#27F795" />
    <path d="M318.802 3.60059H317.265V31.0885H318.802V3.60059Z" fill="#27F795" />
    <path d="M318.802 38.8525H317.265V66.3405H318.802V38.8525Z" fill="#27F795" />
    <path d="M318.802 74.1055H317.265V101.593H318.802V74.1055Z" fill="#27F795" />
    <path d="M318.802 109.351H317.265V136.839H318.802V109.351Z" fill="#27F795" />
    <path d="M318.802 144.604H317.265V172.091H318.802V144.604Z" fill="#27F795" />
    <path d="M318.802 179.855H317.265V207.343H318.802V179.855Z" fill="#27F795" />
    <path d="M318.802 215.108H317.265V242.596H318.802V215.108Z" fill="#27F795" />
    <path d="M283.549 3.60059H282.013V31.0885H283.549V3.60059Z" fill="#27F795" />
    <path d="M283.549 38.8525H282.013V66.3405H283.549V38.8525Z" fill="#27F795" />
    <path d="M283.549 74.1055H282.013V101.593H283.549V74.1055Z" fill="#27F795" />
    <path d="M283.549 109.351H282.013V136.839H283.549V109.351Z" fill="#27F795" />
    <path d="M283.549 144.604H282.013V172.091H283.549V144.604Z" fill="#27F795" />
    <path d="M283.549 179.855H282.013V207.343H283.549V179.855Z" fill="#27F795" />
    <path d="M283.549 215.108H282.013V242.596H283.549V215.108Z" fill="#27F795" />
    <path d="M248.297 3.60059H246.76V31.0885H248.297V3.60059Z" fill="#27F795" />
    <path d="M248.297 38.8525H246.76V66.3405H248.297V38.8525Z" fill="#27F795" />
    <path d="M248.297 74.1055H246.76V101.593H248.297V74.1055Z" fill="#27F795" />
    <path d="M248.297 109.351H246.76V136.839H248.297V109.351Z" fill="#27F795" />
    <path d="M248.297 144.604H246.76V172.091H248.297V144.604Z" fill="#27F795" />
    <path d="M248.297 179.855H246.76V207.343H248.297V179.855Z" fill="#27F795" />
    <path d="M248.297 215.108H246.76V242.596H248.297V215.108Z" fill="#27F795" />
    <path d="M213.044 3.60059H211.508V31.0885H213.044V3.60059Z" fill="#27F795" />
    <path d="M213.044 38.8525H211.508V66.3405H213.044V38.8525Z" fill="#27F795" />
    <path d="M213.044 74.1055H211.508V101.593H213.044V74.1055Z" fill="#27F795" />
    <path d="M213.044 109.351H211.508V136.839H213.044V109.351Z" fill="#27F795" />
    <path d="M213.044 144.604H211.508V172.091H213.044V144.604Z" fill="#27F795" />
    <path d="M213.044 179.855H211.508V207.343H213.044V179.855Z" fill="#27F795" />
    <path d="M213.044 215.108H211.508V242.596H213.044V215.108Z" fill="#27F795" />
    <path d="M177.792 3.60059H176.255V31.0885H177.792V3.60059Z" fill="#27F795" />
    <path d="M177.792 38.8525H176.255V66.3405H177.792V38.8525Z" fill="#27F795" />
    <path d="M177.792 74.1055H176.255V101.593H177.792V74.1055Z" fill="#27F795" />
    <path d="M177.792 109.351H176.255V136.839H177.792V109.351Z" fill="#27F795" />
    <path d="M177.792 144.604H176.255V172.091H177.792V144.604Z" fill="#27F795" />
    <path d="M177.792 179.855H176.255V207.343H177.792V179.855Z" fill="#27F795" />
    <path d="M177.792 215.108H176.255V242.596H177.792V215.108Z" fill="#27F795" />
    <path d="M142.539 3.60059H141.002V31.0885H142.539V3.60059Z" fill="#27F795" />
    <path d="M142.539 38.8525H141.002V66.3405H142.539V38.8525Z" fill="#27F795" />
    <path d="M142.539 74.1055H141.002V101.593H142.539V74.1055Z" fill="#27F795" />
    <path d="M142.539 109.351H141.002V136.839H142.539V109.351Z" fill="#27F795" />
    <path d="M142.539 144.604H141.002V172.091H142.539V144.604Z" fill="#27F795" />
    <path d="M142.539 179.855H141.002V207.343H142.539V179.855Z" fill="#27F795" />
    <path d="M142.539 215.108H141.002V242.596H142.539V215.108Z" fill="#27F795" />
    <path d="M107.294 3.60059H105.758V31.0885H107.294V3.60059Z" fill="#27F795" />
    <path d="M107.294 38.8525H105.758V66.3405H107.294V38.8525Z" fill="#27F795" />
    <path d="M107.294 74.1055H105.758V101.593H107.294V74.1055Z" fill="#27F795" />
    <path d="M107.294 109.351H105.758V136.839H107.294V109.351Z" fill="#27F795" />
    <path d="M107.294 144.604H105.758V172.091H107.294V144.604Z" fill="#27F795" />
    <path d="M107.294 179.855H105.758V207.343H107.294V179.855Z" fill="#27F795" />
    <path d="M107.294 215.108H105.758V242.596H107.294V215.108Z" fill="#27F795" />
    <path d="M72.0415 3.60059H70.5049V31.0885H72.0415V3.60059Z" fill="#27F795" />
    <path d="M72.0415 38.8525H70.5049V66.3405H72.0415V38.8525Z" fill="#27F795" />
    <path d="M72.0415 74.1055H70.5049V101.593H72.0415V74.1055Z" fill="#27F795" />
    <path d="M72.0415 109.351H70.5049V136.839H72.0415V109.351Z" fill="#27F795" />
    <path d="M72.0415 144.604H70.5049V172.091H72.0415V144.604Z" fill="#27F795" />
    <path d="M72.0415 179.855H70.5049V207.343H72.0415V179.855Z" fill="#27F795" />
    <path d="M72.0415 215.108H70.5049V242.596H72.0415V215.108Z" fill="#27F795" />
    <path d="M36.789 3.60059H35.2524V31.0885H36.789V3.60059Z" fill="#27F795" />
    <path d="M36.789 38.8525H35.2524V66.3405H36.789V38.8525Z" fill="#27F795" />
    <path d="M36.789 74.1055H35.2524V101.593H36.789V74.1055Z" fill="#27F795" />
    <path d="M36.789 109.351H35.2524V136.839H36.789V109.351Z" fill="#27F795" />
    <path d="M36.789 144.604H35.2524V172.091H36.789V144.604Z" fill="#27F795" />
    <path d="M36.789 179.855H35.2524V207.343H36.789V179.855Z" fill="#27F795" />
    <path d="M36.789 215.108H35.2524V242.596H36.789V215.108Z" fill="#27F795" />
    <path d="M1.53659 3.60059H0V31.0885H1.53659V3.60059Z" fill="#27F795" />
    <path d="M1.53659 38.8525H0V66.3405H1.53659V38.8525Z" fill="#27F795" />
    <path d="M1.53659 74.1055H0V101.593H1.53659V74.1055Z" fill="#27F795" />
    <path d="M1.53659 109.351H0V136.839H1.53659V109.351Z" fill="#27F795" />
    <path d="M1.53659 144.604H0V172.091H1.53659V144.604Z" fill="#27F795" />
    <path d="M1.53659 179.855H0V207.343H1.53659V179.855Z" fill="#27F795" />
    <path d="M1.53659 215.108H0V242.596H1.53659V215.108Z" fill="#27F795" />
    <path d="M1164.83 215.108H1163.3V242.596H1164.83V215.108Z" fill="#27F795" />
    <path d="M1200.08 215.108H1198.54V242.596H1200.08V215.108Z" fill="#27F795" />
    <path d="M1235.33 215.108H1233.79V242.596H1235.33V215.108Z" fill="#27F795" />
    <path d="M1270.58 215.108H1269.05V242.596H1270.58V215.108Z" fill="#27F795" />
    <path d="M1305.84 215.108H1304.3V242.596H1305.84V215.108Z" fill="#27F795" />
    <path d="M1341.09 215.108H1339.55V242.596H1341.09V215.108Z" fill="#27F795" />
    <path d="M1129.58 250.405H1128.04V277.893H1129.58V250.405Z" fill="#27F795" />
    <path d="M1094.33 250.405H1092.79V277.893H1094.33V250.405Z" fill="#27F795" />
    <path d="M1059.08 250.405H1057.54V277.893H1059.08V250.405Z" fill="#27F795" />
    <path d="M1023.82 250.405H1022.29V277.893H1023.82V250.405Z" fill="#27F795" />
    <path d="M988.57 250.405H987.034V277.893H988.57V250.405Z" fill="#27F795" />
    <path d="M953.325 250.405H951.789V277.893H953.325V250.405Z" fill="#27F795" />
    <path d="M918.073 250.405H916.536V277.893H918.073V250.405Z" fill="#27F795" />
    <path d="M882.82 250.405H881.284V277.893H882.82V250.405Z" fill="#27F795" />
    <path d="M847.568 250.405H846.031V277.893H847.568V250.405Z" fill="#27F795" />
    <path d="M812.315 250.405H810.778V277.893H812.315V250.405Z" fill="#27F795" />
    <path d="M777.063 250.405H775.526V277.893H777.063V250.405Z" fill="#27F795" />
    <path d="M741.817 250.405H740.281V277.893H741.817V250.405Z" fill="#27F795" />
    <path d="M706.565 250.405H705.028V277.893H706.565V250.405Z" fill="#27F795" />
    <path d="M671.312 250.405H669.776V277.893H671.312V250.405Z" fill="#27F795" />
    <path d="M636.06 250.405H634.523V277.893H636.06V250.405Z" fill="#27F795" />
    <path d="M600.807 250.405H599.271V277.893H600.807V250.405Z" fill="#27F795" />
    <path d="M565.555 250.405H564.018V277.893H565.555V250.405Z" fill="#27F795" />
    <path d="M530.31 250.405H528.773V277.893H530.31V250.405Z" fill="#27F795" />
    <path d="M495.057 250.405H493.521V277.893H495.057V250.405Z" fill="#27F795" />
    <path d="M459.805 250.405H458.268V277.893H459.805V250.405Z" fill="#27F795" />
    <path d="M424.552 250.405H423.016V277.893H424.552V250.405Z" fill="#27F795" />
    <path d="M389.3 250.405H387.763V277.893H389.3V250.405Z" fill="#27F795" />
    <path d="M354.047 250.405H352.51V277.893H354.047V250.405Z" fill="#27F795" />
    <path d="M318.802 250.405H317.265V277.893H318.802V250.405Z" fill="#27F795" />
    <path d="M283.549 250.405H282.013V277.893H283.549V250.405Z" fill="#27F795" />
    <path d="M248.297 250.405H246.76V277.893H248.297V250.405Z" fill="#27F795" />
    <path d="M213.044 250.405H211.508V277.893H213.044V250.405Z" fill="#27F795" />
    <path d="M177.792 250.405H176.255V277.893H177.792V250.405Z" fill="#27F795" />
    <path d="M142.539 250.405H141.002V277.893H142.539V250.405Z" fill="#27F795" />
    <path d="M107.294 250.405H105.758V277.893H107.294V250.405Z" fill="#27F795" />
    <path d="M72.0415 250.405H70.5049V277.893H72.0415V250.405Z" fill="#27F795" />
    <path d="M36.789 250.405H35.2524V277.893H36.789V250.405Z" fill="#27F795" />
    <path d="M1.53659 250.405H0V277.893H1.53659V250.405Z" fill="#27F795" />
    <path d="M1164.83 250.405H1163.3V277.893H1164.83V250.405Z" fill="#27F795" />
    <path d="M1200.08 250.405H1198.54V277.893H1200.08V250.405Z" fill="#27F795" />
    <path d="M1235.33 250.405H1233.79V277.893H1235.33V250.405Z" fill="#27F795" />
    <path d="M1270.58 250.405H1269.05V277.893H1270.58V250.405Z" fill="#27F795" />
    <path d="M1305.84 250.405H1304.3V277.893H1305.84V250.405Z" fill="#27F795" />
    <path d="M1341.09 250.405H1339.55V277.893H1341.09V250.405Z" fill="#27F795" />
    <path d="M1129.58 285.702H1128.04V313.19H1129.58V285.702Z" fill="#27F795" />
    <path d="M1094.33 285.702H1092.79V313.19H1094.33V285.702Z" fill="#27F795" />
    <path d="M1059.08 285.702H1057.54V313.19H1059.08V285.702Z" fill="#27F795" />
    <path d="M1023.82 285.702H1022.29V313.19H1023.82V285.702Z" fill="#27F795" />
    <path d="M988.57 285.702H987.034V313.19H988.57V285.702Z" fill="#27F795" />
    <path d="M953.325 285.702H951.789V313.19H953.325V285.702Z" fill="#27F795" />
    <path d="M918.073 285.702H916.536V313.19H918.073V285.702Z" fill="#27F795" />
    <path d="M882.82 285.702H881.284V313.19H882.82V285.702Z" fill="#27F795" />
    <path d="M847.568 285.702H846.031V313.19H847.568V285.702Z" fill="#27F795" />
    <path d="M812.315 285.702H810.778V313.19H812.315V285.702Z" fill="#27F795" />
    <path d="M777.063 285.702H775.526V313.19H777.063V285.702Z" fill="#27F795" />
    <path d="M741.817 285.702H740.281V313.19H741.817V285.702Z" fill="#27F795" />
    <path d="M706.565 285.702H705.028V313.19H706.565V285.702Z" fill="#27F795" />
    <path d="M671.312 285.702H669.776V313.19H671.312V285.702Z" fill="#27F795" />
    <path d="M636.06 285.702H634.523V313.19H636.06V285.702Z" fill="#27F795" />
    <path d="M600.807 285.702H599.271V313.19H600.807V285.702Z" fill="#27F795" />
    <path d="M565.555 285.702H564.018V313.19H565.555V285.702Z" fill="#27F795" />
    <path d="M530.31 285.702H528.773V313.19H530.31V285.702Z" fill="#27F795" />
    <path d="M495.057 285.702H493.521V313.19H495.057V285.702Z" fill="#27F795" />
    <path d="M459.805 285.702H458.268V313.19H459.805V285.702Z" fill="#27F795" />
    <path d="M424.552 285.702H423.016V313.19H424.552V285.702Z" fill="#27F795" />
    <path d="M389.3 285.702H387.763V313.19H389.3V285.702Z" fill="#27F795" />
    <path d="M354.047 285.702H352.51V313.19H354.047V285.702Z" fill="#27F795" />
    <path d="M318.802 285.702H317.265V313.19H318.802V285.702Z" fill="#27F795" />
    <path d="M283.549 285.702H282.013V313.19H283.549V285.702Z" fill="#27F795" />
    <path d="M248.297 285.702H246.76V313.19H248.297V285.702Z" fill="#27F795" />
    <path d="M213.044 285.702H211.508V313.19H213.044V285.702Z" fill="#27F795" />
    <path d="M177.792 285.702H176.255V313.19H177.792V285.702Z" fill="#27F795" />
    <path d="M142.539 285.702H141.002V313.19H142.539V285.702Z" fill="#27F795" />
    <path d="M107.294 285.702H105.758V313.19H107.294V285.702Z" fill="#27F795" />
    <path d="M72.0415 285.702H70.5049V313.19H72.0415V285.702Z" fill="#27F795" />
    <path d="M36.789 285.702H35.2524V313.19H36.789V285.702Z" fill="#27F795" />
    <path d="M1.53659 285.702H0V313.19H1.53659V285.702Z" fill="#27F795" />
    <path d="M1164.83 285.702H1163.3V313.19H1164.83V285.702Z" fill="#27F795" />
    <path d="M1200.08 285.702H1198.54V313.19H1200.08V285.702Z" fill="#27F795" />
    <path d="M1235.33 285.702H1233.79V313.19H1235.33V285.702Z" fill="#27F795" />
    <path d="M1270.58 285.702H1269.05V313.19H1270.58V285.702Z" fill="#27F795" />
    <path d="M1305.84 285.702H1304.3V313.19H1305.84V285.702Z" fill="#27F795" />
    <path d="M1341.09 285.702H1339.55V313.19H1341.09V285.702Z" fill="#27F795" />
    <path d="M1129.58 320.999H1128.04V348.487H1129.58V320.999Z" fill="#27F795" />
    <path d="M1094.33 320.999H1092.79V348.487H1094.33V320.999Z" fill="#27F795" />
    <path d="M1059.08 320.999H1057.54V348.487H1059.08V320.999Z" fill="#27F795" />
    <path d="M1023.82 320.999H1022.29V348.487H1023.82V320.999Z" fill="#27F795" />
    <path d="M988.57 320.999H987.034V348.487H988.57V320.999Z" fill="#27F795" />
    <path d="M953.325 320.999H951.789V348.487H953.325V320.999Z" fill="#27F795" />
    <path d="M918.073 320.999H916.536V348.487H918.073V320.999Z" fill="#27F795" />
    <path d="M882.82 320.999H881.284V348.487H882.82V320.999Z" fill="#27F795" />
    <path d="M847.568 320.999H846.031V348.487H847.568V320.999Z" fill="#27F795" />
    <path d="M812.315 320.999H810.778V348.487H812.315V320.999Z" fill="#27F795" />
    <path d="M777.063 320.999H775.526V348.487H777.063V320.999Z" fill="#27F795" />
    <path d="M741.817 320.999H740.281V348.487H741.817V320.999Z" fill="#27F795" />
    <path d="M706.565 320.999H705.028V348.487H706.565V320.999Z" fill="#27F795" />
    <path d="M671.312 320.999H669.776V348.487H671.312V320.999Z" fill="#27F795" />
    <path d="M636.06 320.999H634.523V348.487H636.06V320.999Z" fill="#27F795" />
    <path d="M600.807 320.999H599.271V348.487H600.807V320.999Z" fill="#27F795" />
    <path d="M565.555 320.999H564.018V348.487H565.555V320.999Z" fill="#27F795" />
    <path d="M530.31 320.999H528.773V348.487H530.31V320.999Z" fill="#27F795" />
    <path d="M495.057 320.999H493.521V348.487H495.057V320.999Z" fill="#27F795" />
    <path d="M459.805 320.999H458.268V348.487H459.805V320.999Z" fill="#27F795" />
    <path d="M424.552 320.999H423.016V348.487H424.552V320.999Z" fill="#27F795" />
    <path d="M389.3 320.999H387.763V348.487H389.3V320.999Z" fill="#27F795" />
    <path d="M354.047 320.999H352.51V348.487H354.047V320.999Z" fill="#27F795" />
    <path d="M318.802 320.999H317.265V348.487H318.802V320.999Z" fill="#27F795" />
    <path d="M283.549 320.999H282.013V348.487H283.549V320.999Z" fill="#27F795" />
    <path d="M248.297 320.999H246.76V348.487H248.297V320.999Z" fill="#27F795" />
    <path d="M213.044 320.999H211.508V348.487H213.044V320.999Z" fill="#27F795" />
    <path d="M177.792 320.999H176.255V348.487H177.792V320.999Z" fill="#27F795" />
    <path d="M142.539 320.999H141.002V348.487H142.539V320.999Z" fill="#27F795" />
    <path d="M107.294 320.999H105.758V348.487H107.294V320.999Z" fill="#27F795" />
    <path d="M72.0415 320.999H70.5049V348.487H72.0415V320.999Z" fill="#27F795" />
    <path d="M36.789 320.999H35.2524V348.487H36.789V320.999Z" fill="#27F795" />
    <path d="M1.53659 320.999H0V348.487H1.53659V320.999Z" fill="#27F795" />
    <path d="M1164.83 320.999H1163.3V348.487H1164.83V320.999Z" fill="#27F795" />
    <path d="M1200.08 320.999H1198.54V348.487H1200.08V320.999Z" fill="#27F795" />
    <path d="M1235.33 320.999H1233.79V348.487H1235.33V320.999Z" fill="#27F795" />
    <path d="M1270.58 320.999H1269.05V348.487H1270.58V320.999Z" fill="#27F795" />
    <path d="M1305.84 320.999H1304.3V348.487H1305.84V320.999Z" fill="#27F795" />
    <path d="M1341.09 320.999H1339.55V348.487H1341.09V320.999Z" fill="#27F795" />
    <path d="M1129.58 356.304H1128.04V383.792H1129.58V356.304Z" fill="#27F795" />
    <path d="M1094.33 356.304H1092.79V383.792H1094.33V356.304Z" fill="#27F795" />
    <path d="M1059.08 356.304H1057.54V383.792H1059.08V356.304Z" fill="#27F795" />
    <path d="M1023.82 356.304H1022.29V383.792H1023.82V356.304Z" fill="#27F795" />
    <path d="M988.57 356.304H987.034V383.792H988.57V356.304Z" fill="#27F795" />
    <path d="M953.325 356.304H951.789V383.792H953.325V356.304Z" fill="#27F795" />
    <path d="M918.073 356.304H916.536V383.792H918.073V356.304Z" fill="#27F795" />
    <path d="M882.82 356.304H881.284V383.792H882.82V356.304Z" fill="#27F795" />
    <path d="M847.568 356.304H846.031V383.792H847.568V356.304Z" fill="#27F795" />
    <path d="M812.315 356.304H810.778V383.792H812.315V356.304Z" fill="#27F795" />
    <path d="M777.063 356.304H775.526V383.792H777.063V356.304Z" fill="#27F795" />
    <path d="M741.817 356.304H740.281V383.792H741.817V356.304Z" fill="#27F795" />
    <path d="M706.565 356.304H705.028V383.792H706.565V356.304Z" fill="#27F795" />
    <path d="M671.312 356.304H669.776V383.792H671.312V356.304Z" fill="#27F795" />
    <path d="M636.06 356.304H634.523V383.792H636.06V356.304Z" fill="#27F795" />
    <path d="M600.807 356.304H599.271V383.792H600.807V356.304Z" fill="#27F795" />
    <path d="M565.555 356.304H564.018V383.792H565.555V356.304Z" fill="#27F795" />
    <path d="M530.31 356.304H528.773V383.792H530.31V356.304Z" fill="#27F795" />
    <path d="M495.057 356.304H493.521V383.792H495.057V356.304Z" fill="#27F795" />
    <path d="M459.805 356.304H458.268V383.792H459.805V356.304Z" fill="#27F795" />
    <path d="M424.552 356.304H423.016V383.792H424.552V356.304Z" fill="#27F795" />
    <path d="M389.3 356.304H387.763V383.792H389.3V356.304Z" fill="#27F795" />
    <path d="M354.047 356.304H352.51V383.792H354.047V356.304Z" fill="#27F795" />
    <path d="M318.802 356.304H317.265V383.792H318.802V356.304Z" fill="#27F795" />
    <path d="M283.549 356.304H282.013V383.792H283.549V356.304Z" fill="#27F795" />
    <path d="M248.297 356.304H246.76V383.792H248.297V356.304Z" fill="#27F795" />
    <path d="M213.044 356.304H211.508V383.792H213.044V356.304Z" fill="#27F795" />
    <path d="M177.792 356.304H176.255V383.792H177.792V356.304Z" fill="#27F795" />
    <path d="M142.539 356.304H141.002V383.792H142.539V356.304Z" fill="#27F795" />
    <path d="M107.294 356.304H105.758V383.792H107.294V356.304Z" fill="#27F795" />
    <path d="M72.0415 356.304H70.5049V383.792H72.0415V356.304Z" fill="#27F795" />
    <path d="M36.789 356.304H35.2524V383.792H36.789V356.304Z" fill="#27F795" />
    <path d="M1.53659 356.304H0V383.792H1.53659V356.304Z" fill="#27F795" />
    <path d="M1164.83 356.304H1163.3V383.792H1164.83V356.304Z" fill="#27F795" />
    <path d="M1200.08 356.304H1198.54V383.792H1200.08V356.304Z" fill="#27F795" />
    <path d="M1235.33 356.304H1233.79V383.792H1235.33V356.304Z" fill="#27F795" />
    <path d="M1270.58 356.304H1269.05V383.792H1270.58V356.304Z" fill="#27F795" />
    <path d="M1305.84 356.304H1304.3V383.792H1305.84V356.304Z" fill="#27F795" />
    <path d="M1341.09 356.304H1339.55V383.792H1341.09V356.304Z" fill="#27F795" />
    <path d="M1129.58 391.601H1128.04V419.089H1129.58V391.601Z" fill="#27F795" />
    <path d="M1094.33 391.601H1092.79V419.089H1094.33V391.601Z" fill="#27F795" />
    <path d="M1059.08 391.601H1057.54V419.089H1059.08V391.601Z" fill="#27F795" />
    <path d="M1023.82 391.601H1022.29V419.089H1023.82V391.601Z" fill="#27F795" />
    <path d="M988.57 391.601H987.034V419.089H988.57V391.601Z" fill="#27F795" />
    <path d="M953.325 391.601H951.789V419.089H953.325V391.601Z" fill="#27F795" />
    <path d="M918.073 391.601H916.536V419.089H918.073V391.601Z" fill="#27F795" />
    <path d="M882.82 391.601H881.284V419.089H882.82V391.601Z" fill="#27F795" />
    <path d="M847.568 391.601H846.031V419.089H847.568V391.601Z" fill="#27F795" />
    <path d="M812.315 391.601H810.778V419.089H812.315V391.601Z" fill="#27F795" />
    <path d="M777.063 391.601H775.526V419.089H777.063V391.601Z" fill="#27F795" />
    <path d="M741.817 391.601H740.281V419.089H741.817V391.601Z" fill="#27F795" />
    <path d="M706.565 391.601H705.028V419.089H706.565V391.601Z" fill="#27F795" />
    <path d="M671.312 391.601H669.776V419.089H671.312V391.601Z" fill="#27F795" />
    <path d="M636.06 391.601H634.523V419.089H636.06V391.601Z" fill="#27F795" />
    <path d="M600.807 391.601H599.271V419.089H600.807V391.601Z" fill="#27F795" />
    <path d="M565.555 391.601H564.018V419.089H565.555V391.601Z" fill="#27F795" />
    <path d="M530.31 391.601H528.773V419.089H530.31V391.601Z" fill="#27F795" />
    <path d="M495.057 391.601H493.521V419.089H495.057V391.601Z" fill="#27F795" />
    <path d="M459.805 391.601H458.268V419.089H459.805V391.601Z" fill="#27F795" />
    <path d="M424.552 391.601H423.016V419.089H424.552V391.601Z" fill="#27F795" />
    <path d="M389.3 391.601H387.763V419.089H389.3V391.601Z" fill="#27F795" />
    <path d="M354.047 391.601H352.51V419.089H354.047V391.601Z" fill="#27F795" />
    <path d="M318.802 391.601H317.265V419.089H318.802V391.601Z" fill="#27F795" />
    <path d="M283.549 391.601H282.013V419.089H283.549V391.601Z" fill="#27F795" />
    <path d="M248.297 391.601H246.76V419.089H248.297V391.601Z" fill="#27F795" />
    <path d="M213.044 391.601H211.508V419.089H213.044V391.601Z" fill="#27F795" />
    <path d="M177.792 391.601H176.255V419.089H177.792V391.601Z" fill="#27F795" />
    <path d="M142.539 391.601H141.002V419.089H142.539V391.601Z" fill="#27F795" />
    <path d="M107.294 391.601H105.758V419.089H107.294V391.601Z" fill="#27F795" />
    <path d="M72.0415 391.601H70.5049V419.089H72.0415V391.601Z" fill="#27F795" />
    <path d="M36.789 391.601H35.2524V419.089H36.789V391.601Z" fill="#27F795" />
    <path d="M1.53659 391.601H0V419.089H1.53659V391.601Z" fill="#27F795" />
    <path d="M1164.83 391.601H1163.3V419.089H1164.83V391.601Z" fill="#27F795" />
    <path d="M1200.08 391.601H1198.54V419.089H1200.08V391.601Z" fill="#27F795" />
    <path d="M1235.33 391.601H1233.79V419.089H1235.33V391.601Z" fill="#27F795" />
    <path d="M1270.58 391.601H1269.05V419.089H1270.58V391.601Z" fill="#27F795" />
    <path d="M1305.84 391.601H1304.3V419.089H1305.84V391.601Z" fill="#27F795" />
    <path d="M1341.09 391.601H1339.55V419.089H1341.09V391.601Z" fill="#27F795" />
    <path d="M1129.58 426.898H1128.04V454.386H1129.58V426.898Z" fill="#27F795" />
    <path d="M1094.33 426.898H1092.79V454.386H1094.33V426.898Z" fill="#27F795" />
    <path d="M1059.08 426.898H1057.54V454.386H1059.08V426.898Z" fill="#27F795" />
    <path d="M1023.82 426.898H1022.29V454.386H1023.82V426.898Z" fill="#27F795" />
    <path d="M988.57 426.898H987.034V454.386H988.57V426.898Z" fill="#27F795" />
    <path d="M953.325 426.898H951.789V454.386H953.325V426.898Z" fill="#27F795" />
    <path d="M918.073 426.898H916.536V454.386H918.073V426.898Z" fill="#27F795" />
    <path d="M882.82 426.898H881.284V454.386H882.82V426.898Z" fill="#27F795" />
    <path d="M847.568 426.898H846.031V454.386H847.568V426.898Z" fill="#27F795" />
    <path d="M812.315 426.898H810.778V454.386H812.315V426.898Z" fill="#27F795" />
    <path d="M777.063 426.898H775.526V454.386H777.063V426.898Z" fill="#27F795" />
    <path d="M741.817 426.898H740.281V454.386H741.817V426.898Z" fill="#27F795" />
    <path d="M706.565 426.898H705.028V454.386H706.565V426.898Z" fill="#27F795" />
    <path d="M671.312 426.898H669.776V454.386H671.312V426.898Z" fill="#27F795" />
    <path d="M636.06 426.898H634.523V454.386H636.06V426.898Z" fill="#27F795" />
    <path d="M600.807 426.898H599.271V454.386H600.807V426.898Z" fill="#27F795" />
    <path d="M565.555 426.898H564.018V454.386H565.555V426.898Z" fill="#27F795" />
    <path d="M530.31 426.898H528.773V454.386H530.31V426.898Z" fill="#27F795" />
    <path d="M495.057 426.898H493.521V454.386H495.057V426.898Z" fill="#27F795" />
    <path d="M459.805 426.898H458.268V454.386H459.805V426.898Z" fill="#27F795" />
    <path d="M424.552 426.898H423.016V454.386H424.552V426.898Z" fill="#27F795" />
    <path d="M389.3 426.898H387.763V454.386H389.3V426.898Z" fill="#27F795" />
    <path d="M354.047 426.898H352.51V454.386H354.047V426.898Z" fill="#27F795" />
    <path d="M318.802 426.898H317.265V454.386H318.802V426.898Z" fill="#27F795" />
    <path d="M283.549 426.898H282.013V454.386H283.549V426.898Z" fill="#27F795" />
    <path d="M248.297 426.898H246.76V454.386H248.297V426.898Z" fill="#27F795" />
    <path d="M213.044 426.898H211.508V454.386H213.044V426.898Z" fill="#27F795" />
    <path d="M177.792 426.898H176.255V454.386H177.792V426.898Z" fill="#27F795" />
    <path d="M142.539 426.898H141.002V454.386H142.539V426.898Z" fill="#27F795" />
    <path d="M107.294 426.898H105.758V454.386H107.294V426.898Z" fill="#27F795" />
    <path d="M72.0415 426.898H70.5049V454.386H72.0415V426.898Z" fill="#27F795" />
    <path d="M36.789 426.898H35.2524V454.386H36.789V426.898Z" fill="#27F795" />
    <path d="M1.53659 426.898H0V454.386H1.53659V426.898Z" fill="#27F795" />
    <path d="M1164.83 426.898H1163.3V454.386H1164.83V426.898Z" fill="#27F795" />
    <path d="M1200.08 426.898H1198.54V454.386H1200.08V426.898Z" fill="#27F795" />
    <path d="M1235.33 426.898H1233.79V454.386H1235.33V426.898Z" fill="#27F795" />
    <path d="M1270.58 426.898H1269.05V454.386H1270.58V426.898Z" fill="#27F795" />
    <path d="M1305.84 426.898H1304.3V454.386H1305.84V426.898Z" fill="#27F795" />
    <path d="M1341.09 426.898H1339.55V454.386H1341.09V426.898Z" fill="#27F795" />
    <path d="M1129.58 462.195H1128.04V489.683H1129.58V462.195Z" fill="#27F795" />
    <path d="M1094.33 462.195H1092.79V489.683H1094.33V462.195Z" fill="#27F795" />
    <path d="M1059.08 462.195H1057.54V489.683H1059.08V462.195Z" fill="#27F795" />
    <path d="M1023.82 462.195H1022.29V489.683H1023.82V462.195Z" fill="#27F795" />
    <path d="M988.57 462.195H987.034V489.683H988.57V462.195Z" fill="#27F795" />
    <path d="M953.325 462.195H951.789V489.683H953.325V462.195Z" fill="#27F795" />
    <path d="M918.073 462.195H916.536V489.683H918.073V462.195Z" fill="#27F795" />
    <path d="M882.82 462.195H881.284V489.683H882.82V462.195Z" fill="#27F795" />
    <path d="M847.568 462.195H846.031V489.683H847.568V462.195Z" fill="#27F795" />
    <path d="M812.315 462.195H810.778V489.683H812.315V462.195Z" fill="#27F795" />
    <path d="M777.063 462.195H775.526V489.683H777.063V462.195Z" fill="#27F795" />
    <path d="M741.817 462.195H740.281V489.683H741.817V462.195Z" fill="#27F795" />
    <path d="M706.565 462.195H705.028V489.683H706.565V462.195Z" fill="#27F795" />
    <path d="M671.312 462.195H669.776V489.683H671.312V462.195Z" fill="#27F795" />
    <path d="M636.06 462.195H634.523V489.683H636.06V462.195Z" fill="#27F795" />
    <path d="M600.807 462.195H599.271V489.683H600.807V462.195Z" fill="#27F795" />
    <path d="M565.555 462.195H564.018V489.683H565.555V462.195Z" fill="#27F795" />
    <path d="M530.31 462.195H528.773V489.683H530.31V462.195Z" fill="#27F795" />
    <path d="M495.057 462.195H493.521V489.683H495.057V462.195Z" fill="#27F795" />
    <path d="M459.805 462.195H458.268V489.683H459.805V462.195Z" fill="#27F795" />
    <path d="M424.552 462.195H423.016V489.683H424.552V462.195Z" fill="#27F795" />
    <path d="M389.3 462.195H387.763V489.683H389.3V462.195Z" fill="#27F795" />
    <path d="M354.047 462.195H352.51V489.683H354.047V462.195Z" fill="#27F795" />
    <path d="M318.802 462.195H317.265V489.683H318.802V462.195Z" fill="#27F795" />
    <path d="M283.549 462.195H282.013V489.683H283.549V462.195Z" fill="#27F795" />
    <path d="M248.297 462.195H246.76V489.683H248.297V462.195Z" fill="#27F795" />
    <path d="M213.044 462.195H211.508V489.683H213.044V462.195Z" fill="#27F795" />
    <path d="M177.792 462.195H176.255V489.683H177.792V462.195Z" fill="#27F795" />
    <path d="M142.539 462.195H141.002V489.683H142.539V462.195Z" fill="#27F795" />
    <path d="M107.294 462.195H105.758V489.683H107.294V462.195Z" fill="#27F795" />
    <path d="M72.0415 462.195H70.5049V489.683H72.0415V462.195Z" fill="#27F795" />
    <path d="M36.789 462.195H35.2524V489.683H36.789V462.195Z" fill="#27F795" />
    <path d="M1.53659 462.195H0V489.683H1.53659V462.195Z" fill="#27F795" />
    <path d="M1164.83 462.195H1163.3V489.683H1164.83V462.195Z" fill="#27F795" />
    <path d="M1200.08 462.195H1198.54V489.683H1200.08V462.195Z" fill="#27F795" />
    <path d="M1235.33 462.195H1233.79V489.683H1235.33V462.195Z" fill="#27F795" />
    <path d="M1270.58 462.195H1269.05V489.683H1270.58V462.195Z" fill="#27F795" />
    <path d="M1305.84 462.195H1304.3V489.683H1305.84V462.195Z" fill="#27F795" />
    <path d="M1341.09 462.195H1339.55V489.683H1341.09V462.195Z" fill="#27F795" />
    <path d="M1129.58 497.492H1128.04V524.98H1129.58V497.492Z" fill="#27F795" />
    <path d="M1094.33 497.492H1092.79V524.98H1094.33V497.492Z" fill="#27F795" />
    <path d="M1059.08 497.492H1057.54V524.98H1059.08V497.492Z" fill="#27F795" />
    <path d="M1023.82 497.492H1022.29V524.98H1023.82V497.492Z" fill="#27F795" />
    <path d="M988.57 497.492H987.034V524.98H988.57V497.492Z" fill="#27F795" />
    <path d="M953.325 497.492H951.789V524.98H953.325V497.492Z" fill="#27F795" />
    <path d="M918.073 497.492H916.536V524.98H918.073V497.492Z" fill="#27F795" />
    <path d="M882.82 497.492H881.284V524.98H882.82V497.492Z" fill="#27F795" />
    <path d="M847.568 497.492H846.031V524.98H847.568V497.492Z" fill="#27F795" />
    <path d="M812.315 497.492H810.778V524.98H812.315V497.492Z" fill="#27F795" />
    <path d="M777.063 497.492H775.526V524.98H777.063V497.492Z" fill="#27F795" />
    <path d="M741.817 497.492H740.281V524.98H741.817V497.492Z" fill="#27F795" />
    <path d="M706.565 497.492H705.028V524.98H706.565V497.492Z" fill="#27F795" />
    <path d="M671.312 497.492H669.776V524.98H671.312V497.492Z" fill="#27F795" />
    <path d="M636.06 497.492H634.523V524.98H636.06V497.492Z" fill="#27F795" />
    <path d="M600.807 497.492H599.271V524.98H600.807V497.492Z" fill="#27F795" />
    <path d="M565.555 497.492H564.018V524.98H565.555V497.492Z" fill="#27F795" />
    <path d="M530.31 497.492H528.773V524.98H530.31V497.492Z" fill="#27F795" />
    <path d="M495.057 497.492H493.521V524.98H495.057V497.492Z" fill="#27F795" />
    <path d="M459.805 497.492H458.268V524.98H459.805V497.492Z" fill="#27F795" />
    <path d="M424.552 497.492H423.016V524.98H424.552V497.492Z" fill="#27F795" />
    <path d="M389.3 497.492H387.763V524.98H389.3V497.492Z" fill="#27F795" />
    <path d="M354.047 497.492H352.51V524.98H354.047V497.492Z" fill="#27F795" />
    <path d="M318.802 497.492H317.265V524.98H318.802V497.492Z" fill="#27F795" />
    <path d="M283.549 497.492H282.013V524.98H283.549V497.492Z" fill="#27F795" />
    <path d="M248.297 497.492H246.76V524.98H248.297V497.492Z" fill="#27F795" />
    <path d="M213.044 497.492H211.508V524.98H213.044V497.492Z" fill="#27F795" />
    <path d="M177.792 497.492H176.255V524.98H177.792V497.492Z" fill="#27F795" />
    <path d="M142.539 497.492H141.002V524.98H142.539V497.492Z" fill="#27F795" />
    <path d="M107.294 497.492H105.758V524.98H107.294V497.492Z" fill="#27F795" />
    <path d="M72.0415 497.492H70.5049V524.98H72.0415V497.492Z" fill="#27F795" />
    <path d="M36.789 497.492H35.2524V524.98H36.789V497.492Z" fill="#27F795" />
    <path d="M1.53659 497.492H0V524.98H1.53659V497.492Z" fill="#27F795" />
    <path d="M1164.83 497.492H1163.3V524.98H1164.83V497.492Z" fill="#27F795" />
    <path d="M1200.08 497.492H1198.54V524.98H1200.08V497.492Z" fill="#27F795" />
    <path d="M1235.33 497.492H1233.79V524.98H1235.33V497.492Z" fill="#27F795" />
    <path d="M1270.58 497.492H1269.05V524.98H1270.58V497.492Z" fill="#27F795" />
    <path d="M1305.84 497.492H1304.3V524.98H1305.84V497.492Z" fill="#27F795" />
    <path d="M1341.09 497.492H1339.55V524.98H1341.09V497.492Z" fill="#27F795" />
    <path d="M1129.58 532.789H1128.04V560.277H1129.58V532.789Z" fill="#27F795" />
    <path d="M1094.33 532.789H1092.79V560.277H1094.33V532.789Z" fill="#27F795" />
    <path d="M1059.08 532.789H1057.54V560.277H1059.08V532.789Z" fill="#27F795" />
    <path d="M1023.82 532.789H1022.29V560.277H1023.82V532.789Z" fill="#27F795" />
    <path d="M988.57 532.789H987.034V560.277H988.57V532.789Z" fill="#27F795" />
    <path d="M953.325 532.789H951.789V560.277H953.325V532.789Z" fill="#27F795" />
    <path d="M918.073 532.789H916.536V560.277H918.073V532.789Z" fill="#27F795" />
    <path d="M882.82 532.789H881.284V560.277H882.82V532.789Z" fill="#27F795" />
    <path d="M847.568 532.789H846.031V560.277H847.568V532.789Z" fill="#27F795" />
    <path d="M812.315 532.789H810.778V560.277H812.315V532.789Z" fill="#27F795" />
    <path d="M777.063 532.789H775.526V560.277H777.063V532.789Z" fill="#27F795" />
    <path d="M741.817 532.789H740.281V560.277H741.817V532.789Z" fill="#27F795" />
    <path d="M706.565 532.789H705.028V560.277H706.565V532.789Z" fill="#27F795" />
    <path d="M671.312 532.789H669.776V560.277H671.312V532.789Z" fill="#27F795" />
    <path d="M636.06 532.789H634.523V560.277H636.06V532.789Z" fill="#27F795" />
    <path d="M600.807 532.789H599.271V560.277H600.807V532.789Z" fill="#27F795" />
    <path d="M565.555 532.789H564.018V560.277H565.555V532.789Z" fill="#27F795" />
    <path d="M530.31 532.789H528.773V560.277H530.31V532.789Z" fill="#27F795" />
    <path d="M495.057 532.789H493.521V560.277H495.057V532.789Z" fill="#27F795" />
    <path d="M459.805 532.789H458.268V560.277H459.805V532.789Z" fill="#27F795" />
    <path d="M424.552 532.789H423.016V560.277H424.552V532.789Z" fill="#27F795" />
    <path d="M389.3 532.789H387.763V560.277H389.3V532.789Z" fill="#27F795" />
    <path d="M354.047 532.789H352.51V560.277H354.047V532.789Z" fill="#27F795" />
    <path d="M318.802 532.789H317.265V560.277H318.802V532.789Z" fill="#27F795" />
    <path d="M283.549 532.789H282.013V560.277H283.549V532.789Z" fill="#27F795" />
    <path d="M248.297 532.789H246.76V560.277H248.297V532.789Z" fill="#27F795" />
    <path d="M213.044 532.789H211.508V560.277H213.044V532.789Z" fill="#27F795" />
    <path d="M177.792 532.789H176.255V560.277H177.792V532.789Z" fill="#27F795" />
    <path d="M142.539 532.789H141.002V560.277H142.539V532.789Z" fill="#27F795" />
    <path d="M107.294 532.789H105.758V560.277H107.294V532.789Z" fill="#27F795" />
    <path d="M72.0415 532.789H70.5049V560.277H72.0415V532.789Z" fill="#27F795" />
    <path d="M36.789 532.789H35.2524V560.277H36.789V532.789Z" fill="#27F795" />
    <path d="M1.53659 532.789H0V560.277H1.53659V532.789Z" fill="#27F795" />
    <path d="M1164.83 532.789H1163.3V560.277H1164.83V532.789Z" fill="#27F795" />
    <path d="M1200.08 532.789H1198.54V560.277H1200.08V532.789Z" fill="#27F795" />
    <path d="M1235.33 532.789H1233.79V560.277H1235.33V532.789Z" fill="#27F795" />
    <path d="M1270.58 532.789H1269.05V560.277H1270.58V532.789Z" fill="#27F795" />
    <path d="M1305.84 532.789H1304.3V560.277H1305.84V532.789Z" fill="#27F795" />
    <path d="M1341.09 532.789H1339.55V560.277H1341.09V532.789Z" fill="#27F795" />
    <path d="M1129.58 568.086H1128.04V595.574H1129.58V568.086Z" fill="#27F795" />
    <path d="M1094.33 568.086H1092.79V595.574H1094.33V568.086Z" fill="#27F795" />
    <path d="M1059.08 568.086H1057.54V595.574H1059.08V568.086Z" fill="#27F795" />
    <path d="M1023.82 568.086H1022.29V595.574H1023.82V568.086Z" fill="#27F795" />
    <path d="M988.57 568.086H987.034V595.574H988.57V568.086Z" fill="#27F795" />
    <path d="M953.325 568.086H951.789V595.574H953.325V568.086Z" fill="#27F795" />
    <path d="M918.073 568.086H916.536V595.574H918.073V568.086Z" fill="#27F795" />
    <path d="M882.82 568.086H881.284V595.574H882.82V568.086Z" fill="#27F795" />
    <path d="M847.568 568.086H846.031V595.574H847.568V568.086Z" fill="#27F795" />
    <path d="M812.315 568.086H810.778V595.574H812.315V568.086Z" fill="#27F795" />
    <path d="M777.063 568.086H775.526V595.574H777.063V568.086Z" fill="#27F795" />
    <path d="M741.817 568.086H740.281V595.574H741.817V568.086Z" fill="#27F795" />
    <path d="M706.565 568.086H705.028V595.574H706.565V568.086Z" fill="#27F795" />
    <path d="M671.312 568.086H669.776V595.574H671.312V568.086Z" fill="#27F795" />
    <path d="M636.06 568.086H634.523V595.574H636.06V568.086Z" fill="#27F795" />
    <path d="M600.807 568.086H599.271V595.574H600.807V568.086Z" fill="#27F795" />
    <path d="M565.555 568.086H564.018V595.574H565.555V568.086Z" fill="#27F795" />
    <path d="M530.31 568.086H528.773V595.574H530.31V568.086Z" fill="#27F795" />
    <path d="M495.057 568.086H493.521V595.574H495.057V568.086Z" fill="#27F795" />
    <path d="M459.805 568.086H458.268V595.574H459.805V568.086Z" fill="#27F795" />
    <path d="M424.552 568.086H423.016V595.574H424.552V568.086Z" fill="#27F795" />
    <path d="M389.3 568.086H387.763V595.574H389.3V568.086Z" fill="#27F795" />
    <path d="M354.047 568.086H352.51V595.574H354.047V568.086Z" fill="#27F795" />
    <path d="M318.802 568.086H317.265V595.574H318.802V568.086Z" fill="#27F795" />
    <path d="M283.549 568.086H282.013V595.574H283.549V568.086Z" fill="#27F795" />
    <path d="M248.297 568.086H246.76V595.574H248.297V568.086Z" fill="#27F795" />
    <path d="M213.044 568.086H211.508V595.574H213.044V568.086Z" fill="#27F795" />
    <path d="M177.792 568.086H176.255V595.574H177.792V568.086Z" fill="#27F795" />
    <path d="M142.539 568.086H141.002V595.574H142.539V568.086Z" fill="#27F795" />
    <path d="M107.294 568.086H105.758V595.574H107.294V568.086Z" fill="#27F795" />
    <path d="M72.0415 568.086H70.5049V595.574H72.0415V568.086Z" fill="#27F795" />
    <path d="M36.789 568.086H35.2524V595.574H36.789V568.086Z" fill="#27F795" />
    <path d="M1.53659 568.086H0V595.574H1.53659V568.086Z" fill="#27F795" />
    <path d="M1164.83 568.086H1163.3V595.574H1164.83V568.086Z" fill="#27F795" />
    <path d="M1200.08 568.086H1198.54V595.574H1200.08V568.086Z" fill="#27F795" />
    <path d="M1235.33 568.086H1233.79V595.574H1235.33V568.086Z" fill="#27F795" />
    <path d="M1270.58 568.086H1269.05V595.574H1270.58V568.086Z" fill="#27F795" />
    <path d="M1305.84 568.086H1304.3V595.574H1305.84V568.086Z" fill="#27F795" />
    <path d="M1341.09 568.086H1339.55V595.574H1341.09V568.086Z" fill="#27F795" />
    <path d="M1129.58 603.391H1128.04V630.879H1129.58V603.391Z" fill="#27F795" />
    <path d="M1094.33 603.391H1092.79V630.879H1094.33V603.391Z" fill="#27F795" />
    <path d="M1059.08 603.391H1057.54V630.879H1059.08V603.391Z" fill="#27F795" />
    <path d="M1023.82 603.391H1022.29V630.879H1023.82V603.391Z" fill="#27F795" />
    <path d="M988.57 603.391H987.034V630.879H988.57V603.391Z" fill="#27F795" />
    <path d="M953.325 603.391H951.789V630.879H953.325V603.391Z" fill="#27F795" />
    <path d="M918.073 603.391H916.536V630.879H918.073V603.391Z" fill="#27F795" />
    <path d="M882.82 603.391H881.284V630.879H882.82V603.391Z" fill="#27F795" />
    <path d="M847.568 603.391H846.031V630.879H847.568V603.391Z" fill="#27F795" />
    <path d="M812.315 603.391H810.778V630.879H812.315V603.391Z" fill="#27F795" />
    <path d="M777.063 603.391H775.526V630.879H777.063V603.391Z" fill="#27F795" />
    <path d="M741.817 603.391H740.281V630.879H741.817V603.391Z" fill="#27F795" />
    <path d="M706.565 603.391H705.028V630.879H706.565V603.391Z" fill="#27F795" />
    <path d="M671.312 603.391H669.776V630.879H671.312V603.391Z" fill="#27F795" />
    <path d="M636.06 603.391H634.523V630.879H636.06V603.391Z" fill="#27F795" />
    <path d="M600.807 603.391H599.271V630.879H600.807V603.391Z" fill="#27F795" />
    <path d="M565.555 603.391H564.018V630.879H565.555V603.391Z" fill="#27F795" />
    <path d="M530.31 603.391H528.773V630.879H530.31V603.391Z" fill="#27F795" />
    <path d="M495.057 603.391H493.521V630.879H495.057V603.391Z" fill="#27F795" />
    <path d="M459.805 603.391H458.268V630.879H459.805V603.391Z" fill="#27F795" />
    <path d="M424.552 603.391H423.016V630.879H424.552V603.391Z" fill="#27F795" />
    <path d="M389.3 603.391H387.763V630.879H389.3V603.391Z" fill="#27F795" />
    <path d="M354.047 603.391H352.51V630.879H354.047V603.391Z" fill="#27F795" />
    <path d="M318.802 603.391H317.265V630.879H318.802V603.391Z" fill="#27F795" />
    <path d="M283.549 603.391H282.013V630.879H283.549V603.391Z" fill="#27F795" />
    <path d="M248.297 603.391H246.76V630.879H248.297V603.391Z" fill="#27F795" />
    <path d="M213.044 603.391H211.508V630.879H213.044V603.391Z" fill="#27F795" />
    <path d="M177.792 603.391H176.255V630.879H177.792V603.391Z" fill="#27F795" />
    <path d="M142.539 603.391H141.002V630.879H142.539V603.391Z" fill="#27F795" />
    <path d="M107.294 603.391H105.758V630.879H107.294V603.391Z" fill="#27F795" />
    <path d="M72.0415 603.391H70.5049V630.879H72.0415V603.391Z" fill="#27F795" />
    <path d="M36.789 603.391H35.2524V630.879H36.789V603.391Z" fill="#27F795" />
    <path d="M1.53659 603.391H0V630.879H1.53659V603.391Z" fill="#27F795" />
    <path d="M1164.83 603.391H1163.3V630.879H1164.83V603.391Z" fill="#27F795" />
    <path d="M1200.08 603.391H1198.54V630.879H1200.08V603.391Z" fill="#27F795" />
    <path d="M1235.33 603.391H1233.79V630.879H1235.33V603.391Z" fill="#27F795" />
    <path d="M1270.58 603.391H1269.05V630.879H1270.58V603.391Z" fill="#27F795" />
    <path d="M1305.84 603.391H1304.3V630.879H1305.84V603.391Z" fill="#27F795" />
    <path d="M1341.09 603.391H1339.55V630.879H1341.09V603.391Z" fill="#27F795" />
    <path d="M1129.58 638.688H1128.04V666.175H1129.58V638.688Z" fill="#27F795" />
    <path d="M1094.33 638.688H1092.79V666.175H1094.33V638.688Z" fill="#27F795" />
    <path d="M1059.08 638.688H1057.54V666.175H1059.08V638.688Z" fill="#27F795" />
    <path d="M1023.82 638.688H1022.29V666.175H1023.82V638.688Z" fill="#27F795" />
    <path d="M988.57 638.688H987.034V666.175H988.57V638.688Z" fill="#27F795" />
    <path d="M953.325 638.688H951.789V666.175H953.325V638.688Z" fill="#27F795" />
    <path d="M918.073 638.688H916.536V666.175H918.073V638.688Z" fill="#27F795" />
    <path d="M882.82 638.688H881.284V666.175H882.82V638.688Z" fill="#27F795" />
    <path d="M847.568 638.688H846.031V666.175H847.568V638.688Z" fill="#27F795" />
    <path d="M812.315 638.688H810.778V666.175H812.315V638.688Z" fill="#27F795" />
    <path d="M777.063 638.688H775.526V666.175H777.063V638.688Z" fill="#27F795" />
    <path d="M741.817 638.688H740.281V666.175H741.817V638.688Z" fill="#27F795" />
    <path d="M706.565 638.688H705.028V666.175H706.565V638.688Z" fill="#27F795" />
    <path d="M671.312 638.688H669.776V666.175H671.312V638.688Z" fill="#27F795" />
    <path d="M636.06 638.688H634.523V666.175H636.06V638.688Z" fill="#27F795" />
    <path d="M600.807 638.688H599.271V666.175H600.807V638.688Z" fill="#27F795" />
    <path d="M565.555 638.688H564.018V666.175H565.555V638.688Z" fill="#27F795" />
    <path d="M530.31 638.688H528.773V666.175H530.31V638.688Z" fill="#27F795" />
    <path d="M495.057 638.688H493.521V666.175H495.057V638.688Z" fill="#27F795" />
    <path d="M459.805 638.688H458.268V666.175H459.805V638.688Z" fill="#27F795" />
    <path d="M424.552 638.688H423.016V666.175H424.552V638.688Z" fill="#27F795" />
    <path d="M389.3 638.688H387.763V666.175H389.3V638.688Z" fill="#27F795" />
    <path d="M354.047 638.688H352.51V666.175H354.047V638.688Z" fill="#27F795" />
    <path d="M318.802 638.688H317.265V666.175H318.802V638.688Z" fill="#27F795" />
    <path d="M283.549 638.688H282.013V666.175H283.549V638.688Z" fill="#27F795" />
    <path d="M248.297 638.688H246.76V666.175H248.297V638.688Z" fill="#27F795" />
    <path d="M213.044 638.688H211.508V666.175H213.044V638.688Z" fill="#27F795" />
    <path d="M177.792 638.688H176.255V666.175H177.792V638.688Z" fill="#27F795" />
    <path d="M142.539 638.688H141.002V666.175H142.539V638.688Z" fill="#27F795" />
    <path d="M107.294 638.688H105.758V666.175H107.294V638.688Z" fill="#27F795" />
    <path d="M72.0415 638.688H70.5049V666.175H72.0415V638.688Z" fill="#27F795" />
    <path d="M36.789 638.688H35.2524V666.175H36.789V638.688Z" fill="#27F795" />
    <path d="M1.53659 638.688H0V666.175H1.53659V638.688Z" fill="#27F795" />
    <path d="M1164.83 638.688H1163.3V666.175H1164.83V638.688Z" fill="#27F795" />
    <path d="M1200.08 638.688H1198.54V666.175H1200.08V638.688Z" fill="#27F795" />
    <path d="M1235.33 638.688H1233.79V666.175H1235.33V638.688Z" fill="#27F795" />
    <path d="M1270.58 638.688H1269.05V666.175H1270.58V638.688Z" fill="#27F795" />
    <path d="M1305.84 638.688H1304.3V666.175H1305.84V638.688Z" fill="#27F795" />
    <path d="M1341.09 638.688H1339.55V666.175H1341.09V638.688Z" fill="#27F795" />
    <path d="M1129.58 673.984H1128.04V701.472H1129.58V673.984Z" fill="#27F795" />
    <path d="M1094.33 673.984H1092.79V701.472H1094.33V673.984Z" fill="#27F795" />
    <path d="M1059.08 673.984H1057.54V701.472H1059.08V673.984Z" fill="#27F795" />
    <path d="M1023.82 673.984H1022.29V701.472H1023.82V673.984Z" fill="#27F795" />
    <path d="M988.57 673.984H987.034V701.472H988.57V673.984Z" fill="#27F795" />
    <path d="M953.325 673.984H951.789V701.472H953.325V673.984Z" fill="#27F795" />
    <path d="M918.073 673.984H916.536V701.472H918.073V673.984Z" fill="#27F795" />
    <path d="M882.82 673.984H881.284V701.472H882.82V673.984Z" fill="#27F795" />
    <path d="M847.568 673.984H846.031V701.472H847.568V673.984Z" fill="#27F795" />
    <path d="M812.315 673.984H810.778V701.472H812.315V673.984Z" fill="#27F795" />
    <path d="M777.063 673.984H775.526V701.472H777.063V673.984Z" fill="#27F795" />
    <path d="M741.817 673.984H740.281V701.472H741.817V673.984Z" fill="#27F795" />
    <path d="M706.565 673.984H705.028V701.472H706.565V673.984Z" fill="#27F795" />
    <path d="M671.312 673.984H669.776V701.472H671.312V673.984Z" fill="#27F795" />
    <path d="M636.06 673.984H634.523V701.472H636.06V673.984Z" fill="#27F795" />
    <path d="M600.807 673.984H599.271V701.472H600.807V673.984Z" fill="#27F795" />
    <path d="M565.555 673.984H564.018V701.472H565.555V673.984Z" fill="#27F795" />
    <path d="M530.31 673.984H528.773V701.472H530.31V673.984Z" fill="#27F795" />
    <path d="M495.057 673.984H493.521V701.472H495.057V673.984Z" fill="#27F795" />
    <path d="M459.805 673.984H458.268V701.472H459.805V673.984Z" fill="#27F795" />
    <path d="M424.552 673.984H423.016V701.472H424.552V673.984Z" fill="#27F795" />
    <path d="M389.3 673.984H387.763V701.472H389.3V673.984Z" fill="#27F795" />
    <path d="M354.047 673.984H352.51V701.472H354.047V673.984Z" fill="#27F795" />
    <path d="M318.802 673.984H317.265V701.472H318.802V673.984Z" fill="#27F795" />
    <path d="M283.549 673.984H282.013V701.472H283.549V673.984Z" fill="#27F795" />
    <path d="M248.297 673.984H246.76V701.472H248.297V673.984Z" fill="#27F795" />
    <path d="M213.044 673.984H211.508V701.472H213.044V673.984Z" fill="#27F795" />
    <path d="M177.792 673.984H176.255V701.472H177.792V673.984Z" fill="#27F795" />
    <path d="M142.539 673.984H141.002V701.472H142.539V673.984Z" fill="#27F795" />
    <path d="M107.294 673.984H105.758V701.472H107.294V673.984Z" fill="#27F795" />
    <path d="M72.0415 673.984H70.5049V701.472H72.0415V673.984Z" fill="#27F795" />
    <path d="M36.789 673.984H35.2524V701.472H36.789V673.984Z" fill="#27F795" />
    <path d="M1.53659 673.984H0V701.472H1.53659V673.984Z" fill="#27F795" />
    <path d="M1164.83 673.984H1163.3V701.472H1164.83V673.984Z" fill="#27F795" />
    <path d="M1200.08 673.984H1198.54V701.472H1200.08V673.984Z" fill="#27F795" />
    <path d="M1235.33 673.984H1233.79V701.472H1235.33V673.984Z" fill="#27F795" />
    <path d="M1270.58 673.984H1269.05V701.472H1270.58V673.984Z" fill="#27F795" />
    <path d="M1305.84 673.984H1304.3V701.472H1305.84V673.984Z" fill="#27F795" />
    <path d="M1341.09 673.984H1339.55V701.472H1341.09V673.984Z" fill="#27F795" />
    <path d="M1129.58 709.281H1128.04V736.769H1129.58V709.281Z" fill="#27F795" />
    <path d="M1094.33 709.281H1092.79V736.769H1094.33V709.281Z" fill="#27F795" />
    <path d="M1059.08 709.281H1057.54V736.769H1059.08V709.281Z" fill="#27F795" />
    <path d="M1023.82 709.281H1022.29V736.769H1023.82V709.281Z" fill="#27F795" />
    <path d="M988.57 709.281H987.034V736.769H988.57V709.281Z" fill="#27F795" />
    <path d="M953.325 709.281H951.789V736.769H953.325V709.281Z" fill="#27F795" />
    <path d="M918.073 709.281H916.536V736.769H918.073V709.281Z" fill="#27F795" />
    <path d="M882.82 709.281H881.284V736.769H882.82V709.281Z" fill="#27F795" />
    <path d="M847.568 709.281H846.031V736.769H847.568V709.281Z" fill="#27F795" />
    <path d="M812.315 709.281H810.778V736.769H812.315V709.281Z" fill="#27F795" />
    <path d="M777.063 709.281H775.526V736.769H777.063V709.281Z" fill="#27F795" />
    <path d="M741.817 709.281H740.281V736.769H741.817V709.281Z" fill="#27F795" />
    <path d="M706.565 709.281H705.028V736.769H706.565V709.281Z" fill="#27F795" />
    <path d="M671.312 709.281H669.776V736.769H671.312V709.281Z" fill="#27F795" />
    <path d="M636.06 709.281H634.523V736.769H636.06V709.281Z" fill="#27F795" />
    <path d="M600.807 709.281H599.271V736.769H600.807V709.281Z" fill="#27F795" />
    <path d="M565.555 709.281H564.018V736.769H565.555V709.281Z" fill="#27F795" />
    <path d="M530.31 709.281H528.773V736.769H530.31V709.281Z" fill="#27F795" />
    <path d="M495.057 709.281H493.521V736.769H495.057V709.281Z" fill="#27F795" />
    <path d="M459.805 709.281H458.268V736.769H459.805V709.281Z" fill="#27F795" />
    <path d="M424.552 709.281H423.016V736.769H424.552V709.281Z" fill="#27F795" />
    <path d="M389.3 709.281H387.763V736.769H389.3V709.281Z" fill="#27F795" />
    <path d="M354.047 709.281H352.51V736.769H354.047V709.281Z" fill="#27F795" />
    <path d="M318.802 709.281H317.265V736.769H318.802V709.281Z" fill="#27F795" />
    <path d="M283.549 709.281H282.013V736.769H283.549V709.281Z" fill="#27F795" />
    <path d="M248.297 709.281H246.76V736.769H248.297V709.281Z" fill="#27F795" />
    <path d="M213.044 709.281H211.508V736.769H213.044V709.281Z" fill="#27F795" />
    <path d="M177.792 709.281H176.255V736.769H177.792V709.281Z" fill="#27F795" />
    <path d="M142.539 709.281H141.002V736.769H142.539V709.281Z" fill="#27F795" />
    <path d="M107.294 709.281H105.758V736.769H107.294V709.281Z" fill="#27F795" />
    <path d="M72.0415 709.281H70.5049V736.769H72.0415V709.281Z" fill="#27F795" />
    <path d="M36.789 709.281H35.2524V736.769H36.789V709.281Z" fill="#27F795" />
    <path d="M1.53659 709.281H0V736.769H1.53659V709.281Z" fill="#27F795" />
    <path d="M1164.83 709.281H1163.3V736.769H1164.83V709.281Z" fill="#27F795" />
    <path d="M1200.08 709.281H1198.54V736.769H1200.08V709.281Z" fill="#27F795" />
    <path d="M1235.33 709.281H1233.79V736.769H1235.33V709.281Z" fill="#27F795" />
    <path d="M1270.58 709.281H1269.05V736.769H1270.58V709.281Z" fill="#27F795" />
    <path d="M1305.84 709.281H1304.3V736.769H1305.84V709.281Z" fill="#27F795" />
    <path d="M1341.09 709.281H1339.55V736.769H1341.09V709.281Z" fill="#27F795" />
    <path d="M1165.72 179.899L1161.2 207.013L1162.71 207.265L1167.23 180.151L1165.72 179.899Z" fill="#27F795" />
    <path d="M1201.76 178.553L1195.84 206.93L1197.35 207.243L1203.26 178.866L1201.76 178.553Z" fill="#27F795" />
    <path d="M1235.19 178.34L1230.74 206.983L1233.26 207.375L1237.71 178.732L1235.19 178.34Z" fill="#27F795" />
    <path d="M1271.99 178.333L1267.54 206.976L1270.05 207.367L1274.51 178.724L1271.99 178.333Z" fill="#27F795" />
    <path d="M1307.51 178.559L1301.5 206.917L1302.93 207.22L1308.94 178.862L1307.51 178.559Z" fill="#27F795" />
    <path d="M1342.22 178.469L1336.92 206.968L1338.24 207.213L1343.54 178.714L1342.22 178.469Z" fill="#27F795" />
    <path d="M1166.3 74.2085L1160.81 101.143L1162.31 101.449L1167.8 74.5153L1166.3 74.2085Z" fill="#27F795" />
    <path d="M1165.72 109.4L1161.2 136.514L1162.72 136.766L1167.23 109.652L1165.72 109.4Z" fill="#27F795" />
    <path d="M1196.63 137.335L1194.07 135.784L1202.05 108.467L1204.61 110.018L1196.63 137.335Z" fill="#27F795" />
    <path d="M1229.82 137.915L1226.18 136.786L1238.94 107.502L1243.06 109.35L1229.82 137.915Z" fill="#27F795" />
    <path d="M1265.91 139.051L1260.87 135.673L1274.22 107.102L1279.27 110.479L1265.91 139.051Z" fill="#27F795" />
    <path d="M1299.67 140.52L1292.79 136.311L1309.29 104.109L1316.16 108.311L1299.67 140.52Z" fill="#27F795" />
    <path d="M1345.49 106.452L1331.34 135.947L1335.09 137.745L1349.24 108.25L1345.49 106.452Z" fill="#27F795" />
    <path d="M1166.44 144.766L1160.76 171.66L1162.26 171.978L1167.95 145.084L1166.44 144.766Z" fill="#27F795" />
    <path d="M1343.43 142.651L1334.09 171.861L1337.2 172.853L1346.53 143.643L1343.43 142.651Z" fill="#27F795" />
    <path d="M1308.09 142.652L1298.76 171.862L1301.86 172.854L1311.2 143.644L1308.09 142.652Z" fill="#27F795" />
    <path d="M1273.49 142.595L1265.48 172.194L1268.62 173.046L1276.64 143.447L1273.49 142.595Z" fill="#27F795" />
    <path d="M1236.89 142.6L1228.88 172.199L1232.03 173.051L1240.04 143.452L1236.89 142.6Z" fill="#27F795" />
    <path d="M1202.9 142.787L1193.8 172.069L1196.26 172.834L1205.36 143.552L1202.9 142.787Z" fill="#27F795" />
  </g>
  <defs>
    <clipPath id="clip0_3833_82758">
      <rect width="1360" height="737" fill="white" />
    </clipPath>
  </defs>
</svg>
