<svg xmlns="http://www.w3.org/2000/svg" viewBox="0 0 109 26">
        
      <g clip-path="url(#clip0_1924_9289)">
        <path d="M40.385 8.92997H38.145V6.20997H35.465V8.92997H33.85V11H35.465V17.32C35.45 19.46 37.005 20.51 39.015 20.45C39.775 20.43 40.3 20.28 40.59 20.185L40.14 18.09C39.99 18.125 39.69 18.195 39.355 18.195C38.68 18.195 38.14 17.96 38.14 16.88V11H40.38V8.92997H40.385ZM42.62 20.29H45.3V8.92997H42.62V20.29ZM43.97 7.31497C44.82 7.31497 45.515 6.66497 45.515 5.86497C45.515 5.05997 44.82 4.40997 43.97 4.40997C43.11 4.40997 42.415 5.05997 42.415 5.86497C42.415 6.66497 43.11 7.31497 43.97 7.31497ZM50.73 13.635C50.73 11.995 51.72 11.045 53.135 11.045C54.52 11.045 55.345 11.955 55.345 13.47V20.29H58.025V13.055C58.03 10.33 56.48 8.77997 54.135 8.77997C52.435 8.77997 51.265 9.59497 50.745 10.86H50.61V8.92997H48.05V20.295H50.73V13.635ZM62.005 24.55C64.09 24.55 65.295 23.475 65.94 21.665L70.505 8.93997L67.64 8.92497L65.015 17.505H64.895L62.275 8.92497H59.435L63.555 20.525L63.325 21.14C62.83 22.435 62.045 22.525 60.875 22.185L60.255 24.27C60.625 24.42 61.275 24.55 62.005 24.55ZM72.485 20.29H75.12V18.5H75.275C75.695 19.33 76.575 20.49 78.53 20.49C81.21 20.49 83.215 18.365 83.215 14.625C83.215 10.835 81.15 8.77997 78.525 8.77997C76.52 8.77997 75.685 9.98497 75.275 10.805H75.165V5.13997H72.485V20.29ZM75.11 14.61C75.11 12.405 76.055 10.975 77.78 10.975C79.565 10.975 80.48 12.49 80.48 14.61C80.48 16.74 79.55 18.295 77.78 18.295C76.075 18.295 75.11 16.815 75.11 14.61ZM85.49 20.29H88.17V8.92997H85.49V20.29ZM86.835 7.31497C87.685 7.31497 88.38 6.66497 88.38 5.86497C88.38 5.05997 87.685 4.40997 86.835 4.40997C85.975 4.40997 85.28 5.05997 85.28 5.86497C85.28 6.66497 85.975 7.31497 86.835 7.31497ZM90.92 20.29H93.6V13.61C93.6 12.165 94.685 11.145 96.16 11.145C96.61 11.145 97.175 11.225 97.405 11.3V8.83497C97.16 8.78997 96.74 8.75997 96.445 8.75997C95.145 8.75997 94.055 9.49997 93.64 10.815H93.52V8.91997H90.925L90.92 20.29ZM102.93 20.49C104.885 20.49 105.765 19.33 106.185 18.5H106.345V20.29H108.98V5.13997H106.295V10.805H106.185C105.78 9.98497 104.94 8.77997 102.935 8.77997C100.31 8.77997 98.245 10.835 98.245 14.625C98.245 18.37 100.25 20.49 102.93 20.49ZM103.675 18.295C101.905 18.295 100.975 16.74 100.975 14.61C100.975 12.495 101.89 10.975 103.675 10.975C105.4 10.975 106.345 12.405 106.345 14.61C106.345 16.815 105.385 18.295 103.675 18.295Z" fill="currentColor"/>
        <path opacity="0.6" d="M24.9999 2.64L17.1949 0.5L14.4499 6.635L24.9999 2.64ZM17.5349 17.77L10.3899 15.215L6.19495 25.5L17.5349 17.77Z" fill="currentColor"/>
        <path d="M0 11.495L17.535 17.77L20.41 4.35999L0 11.495Z" fill="currentColor"/>
      </g>
      <defs>
        <clipPath id="clip0_1924_9289">
          <rect width="108.98" height="25" fill="white" transform="translate(0 0.5)"/>
        </clipPath>
      </defs>
    
      </svg>